<?xml version="1.0" encoding="utf-8"?>
<!-- Generator: Adobe Illustrator 19.2.0, SVG Export Plug-In . SVG Version: 6.00 Build 0)  -->
<svg version="1.1" id="Layer_1" xmlns="http://www.w3.org/2000/svg" xmlns:xlink="http://www.w3.org/1999/xlink" x="0px" y="0px"
	 viewBox="0 0 452.9 268" style="enable-background:new 0 0 452.9 268;" xml:space="preserve">
<style type="text/css">
	.st0{fill:#65933F;}
	.st1{fill:#2D2929;}
	.st2{fill:url(#SVGID_1_);}
	.st3{fill:#5CB3E4;}
	.st4{fill:url(#SVGID_2_);}
	.st5{fill:url(#SVGID_3_);}
	.st6{fill:url(#SVGID_4_);}
</style>
<g>
	<g>
		<path class="st0" d="M8.9,247.9c-1.4,0-2.5,0.5-3.4,1.4c-0.9,0.9-1.3,2.2-1.3,3.7c0,1.5,0.4,2.8,1.3,3.7c0.9,0.9,2,1.4,3.4,1.4
			c2.1,0,3.6-0.7,4.6-2l2.6,2.2c-0.8,1.1-1.8,2-3.1,2.6c-1.3,0.6-2.7,0.9-4.4,0.9c-1.7,0-3.2-0.4-4.5-1.1c-1.3-0.7-2.3-1.8-3.1-3.1
			C0.4,256.2,0,254.7,0,253c0-1.7,0.4-3.3,1.1-4.6c0.7-1.3,1.8-2.4,3.1-3.1c1.3-0.7,2.8-1.1,4.6-1.1c1.6,0,3,0.3,4.2,0.8
			c1.2,0.5,2.2,1.3,3,2.3l-2.5,2.4C12.3,248.5,10.8,247.9,8.9,247.9z"/>
		<path class="st0" d="M31.6,245.3c1.4,0.7,2.4,1.8,3.2,3.1c0.8,1.3,1.1,2.8,1.1,4.6c0,1.7-0.4,3.3-1.1,4.6
			c-0.8,1.3-1.8,2.4-3.2,3.1c-1.4,0.7-2.9,1.1-4.7,1.1c-1.8,0-3.4-0.4-4.8-1.1c-1.4-0.7-2.4-1.8-3.2-3.1c-0.8-1.3-1.1-2.9-1.1-4.6
			c0-1.7,0.4-3.2,1.1-4.6c0.8-1.3,1.8-2.3,3.2-3.1c1.4-0.7,3-1.1,4.8-1.1C28.6,244.2,30.2,244.6,31.6,245.3z M23.3,249.2
			c-0.9,1-1.4,2.2-1.4,3.8c0,1.5,0.5,2.8,1.4,3.8c0.9,1,2.1,1.5,3.5,1.5c1.4,0,2.6-0.5,3.5-1.5c0.9-1,1.4-2.2,1.4-3.8
			c0-1.5-0.5-2.8-1.4-3.8c-0.9-1-2.1-1.5-3.5-1.5C25.4,247.8,24.2,248.3,23.3,249.2z"/>
		<path class="st0" d="M66.9,245.9c1.1,1.2,1.7,2.8,1.7,4.9v10.8h-4.2V252c0-1.2-0.3-2.2-1-2.9c-0.7-0.7-1.6-1-2.8-1
			c-1.3,0-2.4,0.5-3.2,1.5c-0.8,0.9-1.2,2.1-1.2,3.5v8.5H52V252c0-1.2-0.3-2.2-1-2.9c-0.7-0.7-1.6-1-2.7-1c-1.4,0-2.4,0.5-3.2,1.5
			c-0.8,0.9-1.2,2.1-1.2,3.5v8.5h-4.2v-17.3h4.2v3.2c1.1-2.2,3.2-3.3,6.1-3.4c1.5,0,2.8,0.4,3.8,1.1c1,0.7,1.7,1.7,2.1,3
			c1.1-2.7,3.2-4.1,6.4-4.1C64.3,244.2,65.8,244.8,66.9,245.9z"/>
		<path class="st0" d="M87.9,245.3c1.2,0.7,2.2,1.8,2.9,3.1c0.7,1.3,1,2.9,1,4.6c0,1.7-0.3,3.2-1,4.5s-1.6,2.3-2.8,3.1
			c-1.2,0.7-2.6,1.1-4.3,1.1c-1.3,0-2.4-0.3-3.4-0.8c-1-0.5-1.8-1.2-2.5-2.2v9.1h-4.2v-23.5h4.2v2.8c0.6-1,1.4-1.7,2.4-2.2
			c1-0.5,2.1-0.8,3.4-0.8C85.2,244.2,86.7,244.6,87.9,245.3z M86.2,256.7c0.9-1,1.4-2.2,1.4-3.8s-0.5-2.8-1.4-3.7
			c-0.9-1-2.1-1.5-3.5-1.5c-1.4,0-2.6,0.5-3.5,1.5c-0.9,1-1.4,2.2-1.4,3.7c0,1.5,0.5,2.8,1.4,3.8c0.9,1,2.1,1.5,3.5,1.5
			C84.1,258.1,85.3,257.6,86.2,256.7z"/>
		<path class="st0" d="M95.7,237.6h4.2v23.9h-4.2V237.6z"/>
		<path class="st0" d="M109.3,237.6c0.5,0.5,0.7,1.1,0.7,1.8c0,0.7-0.2,1.3-0.7,1.8c-0.5,0.5-1,0.7-1.7,0.7c-0.7,0-1.3-0.2-1.7-0.7
			s-0.7-1.1-0.7-1.8c0-0.7,0.2-1.3,0.7-1.8s1-0.7,1.7-0.7C108.2,236.9,108.8,237.1,109.3,237.6z M105.5,244.3h4.2v17.3h-4.2V244.3z"
			/>
		<path class="st0" d="M125.2,261.6v-2.1c-0.6,0.8-1.4,1.3-2.3,1.7c-0.9,0.4-2,0.6-3.3,0.6c-1.2,0-2.3-0.2-3.2-0.7
			c-0.9-0.5-1.6-1.1-2.1-1.9c-0.5-0.8-0.7-1.7-0.7-2.7c0-1.6,0.6-2.9,1.7-3.8s2.8-1.4,4.8-1.4h5v-0.5c0-1-0.3-1.8-1-2.4
			c-0.7-0.6-1.6-0.8-2.9-0.8c-1.6,0-3.3,0.5-5.1,1.6l-1.5-2.9c1.4-0.8,2.6-1.3,3.7-1.6c1.1-0.3,2.4-0.5,3.9-0.5c2.2,0,4,0.5,5.2,1.6
			c1.2,1.1,1.9,2.6,1.9,4.5l0,11.3H125.2z M123.7,257.7c0.9-0.6,1.3-1.3,1.5-2.1V254h-4.4c-1.1,0-1.9,0.2-2.5,0.5
			c-0.5,0.3-0.8,0.9-0.8,1.6c0,0.7,0.3,1.3,0.8,1.7c0.5,0.4,1.3,0.6,2.2,0.6C121.8,258.5,122.9,258.3,123.7,257.7z"/>
		<path class="st0" d="M149.3,245.9c1.1,1.2,1.7,2.8,1.7,4.9v10.8h-4.2V252c0-1.2-0.3-2.2-1-2.9c-0.7-0.7-1.6-1-2.8-1
			c-1.4,0-2.5,0.5-3.3,1.4c-0.8,0.9-1.2,2.1-1.2,3.5v8.5h-4.2v-17.3h4.2v3.2c1.2-2.2,3.2-3.3,6.2-3.4
			C146.6,244.2,148.1,244.8,149.3,245.9z"/>
		<path class="st0" d="M163.2,247.9c-1.4,0-2.5,0.5-3.4,1.4c-0.9,0.9-1.3,2.2-1.3,3.7c0,1.5,0.4,2.8,1.3,3.7c0.9,0.9,2,1.4,3.4,1.4
			c2.1,0,3.6-0.7,4.6-2l2.6,2.2c-0.8,1.1-1.8,2-3.1,2.6c-1.3,0.6-2.7,0.9-4.4,0.9c-1.7,0-3.2-0.4-4.5-1.1c-1.3-0.7-2.3-1.8-3.1-3.1
			c-0.7-1.3-1.1-2.8-1.1-4.6c0-1.7,0.4-3.3,1.1-4.6c0.7-1.3,1.8-2.4,3.1-3.1c1.3-0.7,2.8-1.1,4.6-1.1c1.6,0,3,0.3,4.2,0.8
			c1.2,0.5,2.2,1.3,3,2.3l-2.5,2.4C166.6,248.5,165.1,247.9,163.2,247.9z"/>
		<path class="st0" d="M187,246.5c1.4,1.6,2.1,3.8,2.1,6.6c0,0.6,0,1,0,1.3h-12.7c0.3,1.2,0.9,2.2,1.7,2.9c0.9,0.7,1.9,1,3.2,1
			c0.9,0,1.7-0.2,2.5-0.5c0.8-0.3,1.5-0.8,2.1-1.4l2.3,2.4c-0.9,0.9-1.9,1.7-3.1,2.2c-1.2,0.5-2.6,0.8-4.1,0.8
			c-1.8,0-3.3-0.4-4.7-1.1c-1.3-0.7-2.4-1.8-3.1-3.1c-0.7-1.3-1.1-2.8-1.1-4.6c0-1.7,0.4-3.2,1.1-4.6c0.7-1.3,1.8-2.4,3.1-3.1
			c1.3-0.7,2.8-1.1,4.5-1.1C183.5,244.2,185.6,245,187,246.5z M185.2,251.6c0-1.3-0.5-2.3-1.3-3c-0.8-0.8-1.8-1.1-3.2-1.1
			c-1.2,0-2.3,0.4-3.1,1.1c-0.8,0.7-1.3,1.8-1.5,3H185.2z"/>
		<path class="st0" d="M228.1,245.9c1.1,1.2,1.7,2.8,1.7,4.9v10.8h-4.2V252c0-1.2-0.3-2.2-1-2.9c-0.7-0.7-1.6-1-2.8-1
			c-1.3,0-2.4,0.5-3.2,1.5c-0.8,0.9-1.2,2.1-1.2,3.5v8.5h-4.2V252c0-1.2-0.3-2.2-1-2.9c-0.7-0.7-1.6-1-2.7-1c-1.4,0-2.4,0.5-3.2,1.5
			c-0.8,0.9-1.2,2.1-1.2,3.5v8.5h-4.2v-17.3h4.2v3.2c1.1-2.2,3.2-3.3,6.1-3.4c1.5,0,2.8,0.4,3.8,1.1c1,0.7,1.7,1.7,2.1,3
			c1.1-2.7,3.2-4.1,6.4-4.1C225.5,244.2,227,244.8,228.1,245.9z"/>
		<path class="st0" d="M244.8,261.6v-2.1c-0.6,0.8-1.4,1.3-2.3,1.7c-0.9,0.4-2,0.6-3.3,0.6c-1.2,0-2.3-0.2-3.2-0.7
			c-0.9-0.5-1.6-1.1-2.1-1.9c-0.5-0.8-0.7-1.7-0.7-2.7c0-1.6,0.6-2.9,1.7-3.8s2.8-1.4,4.8-1.4h5v-0.5c0-1-0.3-1.8-1-2.4
			c-0.7-0.6-1.6-0.8-2.9-0.8c-1.6,0-3.3,0.5-5.1,1.6l-1.5-2.9c1.4-0.8,2.6-1.3,3.7-1.6c1.1-0.3,2.4-0.5,3.9-0.5c2.2,0,4,0.5,5.2,1.6
			c1.2,1.1,1.9,2.6,1.9,4.5l0,11.3H244.8z M243.3,257.7c0.9-0.6,1.3-1.3,1.5-2.1V254h-4.4c-1.1,0-1.9,0.2-2.5,0.5
			c-0.5,0.3-0.8,0.9-0.8,1.6c0,0.7,0.3,1.3,0.8,1.7c0.5,0.4,1.3,0.6,2.2,0.6C241.5,258.5,242.5,258.3,243.3,257.7z"/>
		<path class="st0" d="M270.5,237.6v23.9h-4.2v-2.8c-0.6,1-1.4,1.7-2.4,2.2c-1,0.5-2.1,0.8-3.4,0.8c-1.6,0-3.1-0.4-4.3-1.1
			s-2.2-1.8-2.9-3.1c-0.7-1.3-1-2.9-1-4.6c0-1.7,0.3-3.2,1-4.6c0.7-1.3,1.6-2.3,2.9-3.1c1.2-0.7,2.6-1.1,4.2-1.1
			c1.3,0,2.5,0.3,3.5,0.8c1,0.5,1.8,1.3,2.5,2.2v-9.5H270.5z M264.9,256.8c0.9-1,1.4-2.2,1.4-3.8c0-1.5-0.5-2.8-1.4-3.8
			s-2.1-1.5-3.5-1.5s-2.6,0.5-3.5,1.5c-0.9,1-1.4,2.2-1.4,3.8c0,1.5,0.5,2.8,1.4,3.8c0.9,1,2.1,1.5,3.5,1.5S264,257.8,264.9,256.8z"
			/>
		<path class="st0" d="M289.4,246.5c1.4,1.6,2.1,3.8,2.1,6.6c0,0.6,0,1,0,1.3h-12.7c0.3,1.2,0.9,2.2,1.7,2.9c0.9,0.7,1.9,1,3.2,1
			c0.9,0,1.7-0.2,2.5-0.5c0.8-0.3,1.5-0.8,2.1-1.4l2.3,2.4c-0.9,0.9-1.9,1.7-3.1,2.2c-1.2,0.5-2.6,0.8-4.1,0.8
			c-1.8,0-3.3-0.4-4.7-1.1c-1.3-0.7-2.4-1.8-3.1-3.1c-0.7-1.3-1.1-2.8-1.1-4.6c0-1.7,0.4-3.2,1.1-4.6c0.7-1.3,1.8-2.4,3.1-3.1
			c1.3-0.7,2.8-1.1,4.5-1.1C286,244.2,288,245,289.4,246.5z M287.7,251.6c0-1.3-0.5-2.3-1.3-3c-0.8-0.8-1.8-1.1-3.2-1.1
			c-1.2,0-2.3,0.4-3.1,1.1c-0.8,0.7-1.3,1.8-1.5,3H287.7z"/>
		<path class="st0" d="M316.7,246.5c1.4,1.6,2.1,3.8,2.1,6.6c0,0.6,0,1,0,1.3H306c0.3,1.2,0.9,2.2,1.7,2.9c0.9,0.7,1.9,1,3.2,1
			c0.9,0,1.7-0.2,2.5-0.5c0.8-0.3,1.5-0.8,2.1-1.4l2.3,2.4c-0.9,0.9-1.9,1.7-3.1,2.2c-1.2,0.5-2.6,0.8-4.1,0.8
			c-1.8,0-3.3-0.4-4.7-1.1c-1.3-0.7-2.4-1.8-3.1-3.1c-0.7-1.3-1.1-2.8-1.1-4.6c0-1.7,0.4-3.2,1.1-4.6c0.7-1.3,1.8-2.4,3.1-3.1
			c1.3-0.7,2.8-1.1,4.5-1.1C313.3,244.2,315.3,245,316.7,246.5z M315,251.6c0-1.3-0.5-2.3-1.3-3c-0.8-0.8-1.8-1.1-3.2-1.1
			c-1.2,0-2.3,0.4-3.1,1.1c-0.8,0.7-1.3,1.8-1.5,3H315z"/>
		<path class="st0" d="M332.8,261.6v-2.1c-0.6,0.8-1.4,1.3-2.3,1.7c-0.9,0.4-2,0.6-3.3,0.6c-1.2,0-2.3-0.2-3.2-0.7
			c-0.9-0.5-1.6-1.1-2.1-1.9c-0.5-0.8-0.7-1.7-0.7-2.7c0-1.6,0.6-2.9,1.7-3.8s2.8-1.4,4.8-1.4h5v-0.5c0-1-0.3-1.8-1-2.4
			c-0.7-0.6-1.6-0.8-2.9-0.8c-1.6,0-3.3,0.5-5.1,1.6l-1.5-2.9c1.4-0.8,2.6-1.3,3.7-1.6c1.1-0.3,2.4-0.5,3.9-0.5c2.2,0,4,0.5,5.2,1.6
			c1.2,1.1,1.9,2.6,1.9,4.5l0,11.3H332.8z M331.3,257.7c0.9-0.6,1.3-1.3,1.5-2.1V254h-4.4c-1.1,0-1.9,0.2-2.5,0.5
			c-0.5,0.3-0.8,0.9-0.8,1.6c0,0.7,0.3,1.3,0.8,1.7c0.5,0.4,1.3,0.6,2.2,0.6C329.4,258.5,330.4,258.3,331.3,257.7z"/>
		<path class="st0" d="M349.4,247.8c-0.9-0.3-1.7-0.4-2.5-0.4c-0.7,0-1.3,0.1-1.7,0.4c-0.4,0.2-0.6,0.6-0.6,1.1c0,0.5,0.3,1,0.8,1.2
			c0.5,0.3,1.4,0.6,2.5,0.9c1.2,0.4,2.2,0.7,3,1.1c0.8,0.4,1.4,0.9,2,1.6s0.9,1.6,0.9,2.8c0,1.7-0.6,3-1.9,3.9
			c-1.3,0.9-2.9,1.4-4.9,1.4c-1.3,0-2.6-0.2-3.9-0.6s-2.3-1-3.2-1.8l1.5-2.9c0.8,0.7,1.7,1.2,2.8,1.6s2.1,0.6,3.1,0.6
			c0.8,0,1.4-0.1,1.9-0.4c0.5-0.3,0.7-0.7,0.7-1.2c0-0.6-0.3-1.1-0.8-1.4c-0.5-0.3-1.4-0.6-2.6-1c-1.2-0.3-2.1-0.7-2.8-1
			c-0.7-0.3-1.4-0.8-1.9-1.5c-0.5-0.7-0.8-1.6-0.8-2.7c0-1.7,0.6-3,1.9-3.9c1.2-0.9,2.8-1.3,4.7-1.3c1.1,0,2.3,0.2,3.4,0.5
			c1.1,0.3,2.1,0.8,3,1.4l-1.5,3C351.2,248.5,350.3,248.1,349.4,247.8z"/>
		<path class="st0" d="M362.4,266.9c-1,0.7-2.2,1.1-3.6,1.1c-0.8,0-1.6-0.1-2.3-0.4c-0.7-0.2-1.3-0.6-2-1.2l1.8-3.2
			c0.4,0.3,0.8,0.5,1.1,0.7s0.7,0.2,1.1,0.2c1.1,0,2-0.6,2.5-1.7l0.5-1.1l-7.1-17h4.4l4.9,12.5l4.5-12.5h4.2l-7.7,19.4
			C364.1,265.1,363.4,266.2,362.4,266.9z"/>
	</g>
	<polygon class="st1" points="304.3,87.8 304.3,87.8 304.3,87.8 	"/>
	<polygon class="st1" points="321.5,221.6 321.5,221.6 321.5,221.6 	"/>
	<linearGradient id="SVGID_1_" gradientUnits="userSpaceOnUse" x1="38.463" y1="208.2254" x2="38.463" y2="62.5114">
		<stop  offset="0" style="stop-color:#254EA0"/>
		<stop  offset="0.4622" style="stop-color:#0390C4"/>
		<stop  offset="0.848" style="stop-color:#32B7E3"/>
	</linearGradient>
	<path class="st2" d="M57.2,82.7c-5.5,4.9-11.7,7.4-18.5,7.4c-6.7,0-13-2.5-18.6-7.3c-0.9-0.8-1.7-1.6-2.5-2.5v127.8l41.8,0.1V80.5
		C58.7,81.3,57.9,82,57.2,82.7z"/>
	<path class="st3" d="M60.2,54.6c0-6.3-2.3-11.6-6.8-15.7c-4.4-4.1-9.4-6.1-14.7-6.1c-5.3,0-10.3,2.1-14.9,6.1
		c-4.6,4.1-7,9.4-7,15.7c0,2,0.3,4,0.7,5.8c1,4,3.1,7.4,6.3,10.1l0,0c4.5,3.9,9.5,5.9,14.8,5.9c5.3,0,10.3-2,14.7-5.9
		c3-2.7,5-5.9,6-9.7C59.9,58.9,60.2,56.8,60.2,54.6z"/>
	<linearGradient id="SVGID_2_" gradientUnits="userSpaceOnUse" x1="243.9702" y1="219.6861" x2="243.9702" y2="62.9499">
		<stop  offset="0" style="stop-color:#254EA0"/>
		<stop  offset="0.4622" style="stop-color:#0390C4"/>
		<stop  offset="0.848" style="stop-color:#32B7E3"/>
	</linearGradient>
	<path class="st4" d="M280.7,84.1L275.4,96c-3.5,7.8-6.5,14.5-8.9,20c-3.4,7.7-6.1,14-8,18.8c-0.3,0.7-0.5,1.3-0.8,2
		c-7.6-23-21.4-61.4-25-70.1l-1.5-3.6h-42.8l68.5,156.7l5.4-12.2c7-16,37.3-79.6,37.3-79.6L280.7,84.1z"/>
	<linearGradient id="SVGID_3_" gradientUnits="userSpaceOnUse" x1="370.5403" y1="218.0271" x2="370.5403" y2="-3.698915e-09">
		<stop  offset="0" style="stop-color:#65933F"/>
		<stop  offset="0.4827" style="stop-color:#BAD531"/>
	</linearGradient>
	<path class="st5" d="M350.9,141.9c-1.6-4-3.6-9.2-6.3-15.7c-2.7-6.5-6.2-14.8-10.5-24.6c-2.1-4.8-4.5-10.2-7.1-16l-1.5-3.4h-37.3
		L349.4,218L452.9,0L350.9,141.9z"/>
	<linearGradient id="SVGID_4_" gradientUnits="userSpaceOnUse" x1="135.7843" y1="211.9012" x2="135.7843" y2="59.3541">
		<stop  offset="0" style="stop-color:#254EA0"/>
		<stop  offset="0.4622" style="stop-color:#0390C4"/>
		<stop  offset="0.848" style="stop-color:#32B7E3"/>
	</linearGradient>
	<path class="st6" d="M175.3,159.7l-4.5,3.6c-6.1,5-13.6,7.5-22.9,7.5c-5.3,0-10.2-0.9-14.5-2.8c-4.3-1.8-8.1-4.3-11.2-7.6
		c-3.1-3.2-5.6-7-7.3-11.3c-1.7-4.2-2.6-8.9-2.5-13.8c0-5.1,0.9-9.9,2.6-14.1c1.7-4.2,4.1-7.8,7.2-10.8c3.1-3,7-5.5,11.3-7.3
		c4.3-1.8,9.2-2.7,14.5-2.7c0,0,0,0,0,0c9.1,0,16.6,2.4,23,7.4l2.8,2.2l16.8-19.5l-10.5-24.1l-0.2-0.4c-1.7-0.7-3.4-1.4-5.1-2.1
		c-8.3-3.1-17.3-4.7-26.8-4.7H148c-10.5,0-20.6,2-30,5.9c-9.4,3.9-17.7,9.4-24.6,16.3c-6.9,6.9-12.5,15-16.6,24.1
		c-4.1,9.2-6.2,19.2-6.3,29.6c0,10.4,2,20.5,6.1,29.8c4,9.3,9.6,17.5,16.4,24.4c6.9,6.9,15.1,12.5,24.5,16.4c9.4,4,19.5,6,30.1,6.1
		h0.2c9.2,0,18-1.5,26.1-4.6c8.1-3,15.5-7.2,22.1-12.3l4.6-3.6L175.3,159.7z"/>
</g>
</svg>
